<svg width="11" height="20" viewBox="0 0 11 20" xmlns="http://www.w3.org/2000/svg"><title>78FFC598-0622-4BE6-BEEB-3AF3E8896218</title><path d="M10.819 13.21c0 1.084-.407 1.978-1.22 2.684-.812.705-1.948 1.15-3.407 1.333V20H4.65v-2.666c-.892 0-1.757-.07-2.594-.21-.837-.139-1.522-.332-2.056-.579V14.68a11.73 11.73 0 0 0 2.29.723c.864.188 1.651.281 2.36.281v-5.26c-1.633-.518-2.78-1.12-3.437-1.805C.556 7.934.227 7.05.227 5.965c0-1.044.405-1.9 1.214-2.57.808-.67 1.878-1.076 3.21-1.22V0h1.541v2.152c1.467.04 2.882.335 4.244.884l-.621 1.567a12.14 12.14 0 0 0-3.623-.837v5.188c1.252.398 2.188.787 2.81 1.166.621.378 1.08.812 1.375 1.303.294.49.442 1.085.442 1.787zm-2.032.155c0-.574-.178-1.038-.532-1.392-.355-.355-1.042-.708-2.063-1.058v4.65c1.73-.24 2.595-.972 2.595-2.2zm-6.54-7.424c0 .606.18 1.092.538 1.459.36.366.98.713 1.865 1.04V3.814c-.789.127-1.386.376-1.793.747-.406.37-.61.83-.61 1.38z" fill="#FFF" fill-rule="evenodd"/></svg>