<svg xmlns="http://www.w3.org/2000/svg" width="19" height="20" viewBox="0 0 19 20">
    <path fill="none" fill-rule="evenodd" stroke="#809DCF" stroke-width="2" d="M9.373 6.27c.004.005.004.002.005.002l3.248-3.248c-.002.002.005.002-.002-.005l3.506 3.506c-.005-.005-.005-.002-.005-.002L12.877 9.77c.001-.002-.005-.002.001.005L9.373 6.27zM7.627 4.338c.052.053.052.133-.005.19l3.446-3.445a.137.137 0 0 1-.19.004c-.053-.053-.053-.133.004-.19L7.436 4.342a.137.137 0 0 1 .19-.004zm6.998 7.37c.052.053.053.133-.005.19l3.446-3.445a.137.137 0 0 1-.19.004c-.053-.053-.053-.133.004-.19l-3.445 3.445a.137.137 0 0 1 .19-.004zm-6.721-.045L2.05 18.402a.505.505 0 0 1-.767.026l-.143-.144a.507.507 0 0 1 .025-.766l6.739-5.855z"/>
</svg>
