<svg xmlns="http://www.w3.org/2000/svg" width="20" height="22" viewBox="0 0 20 22">
    <g fill="none" fill-rule="evenodd">
        <path fill="#809DCF" fill-rule="nonzero" d="M5.5 12c0 2.481 2.017 4.5 4.5 4.5 2.481 0 4.5-2.017 4.5-4.5 0-2.481-2.017-4.5-4.5-4.5A4.504 4.504 0 0 0 5.5 12zM4 12c0-3.314 2.693-6 6-6 3.314 0 6 2.693 6 6 0 3.314-2.693 6-6 6-3.314 0-6-2.693-6-6zm5 8h2v2H9v-2zm-7-3h2v2H2v-2zm14 0h2v2h-2v-2zm2-6h2v2h-2v-2zM0 11h2v2H0v-2z"/>
        <path stroke="#809DCF" stroke-width="1.5" d="M12.25 4.543A8.747 8.747 0 0 0 10 4.25c-.768 0-1.522.1-2.25.293V.75h4.5v3.793z"/>
    </g>
</svg>
