<svg xmlns="http://www.w3.org/2000/svg" width="20" height="20" viewBox="0 0 20 20">
    <path fill="#809DCF" fill-rule="evenodd" d="M.708 16.034h.829a2.667 2.667 0 0 0 .431 3.19c.501.5 1.174.776 1.9.776.725 0 1.381-.276 1.899-.776.5-.5.777-1.172.777-1.896 0-.466-.12-.897-.345-1.294H9.53a2.667 2.667 0 0 0 .432 3.19c.5.5 1.174.776 1.899.776.725 0 1.381-.276 1.9-.776.5-.5.776-1.172.776-1.896 0-.466-.12-.897-.345-1.294h.898a.7.7 0 0 0 .708-.706.7.7 0 0 0-.708-.707H1.416v-1.38h15.54a.7.7 0 0 0 .673-.517l2.348-8.569a.69.69 0 0 0-.12-.603.721.721 0 0 0-.553-.276H1.416V.706A.7.7 0 0 0 .708 0 .7.7 0 0 0 0 .707V15.31c0 .414.31.724.708.724zm10.239.397a1.255 1.255 0 0 1 1.796 0c.241.241.38.552.38.897 0 .344-.139.655-.38.896a1.294 1.294 0 0 1-1.796 0c-.5-.5-.5-1.293 0-1.793zm-7.977 0a1.255 1.255 0 0 1 1.796 0c.241.241.38.552.38.897 0 .344-.139.655-.38.896a1.294 1.294 0 0 1-1.796 0c-.5-.5-.5-1.293 0-1.793zM1.416 4.672H18.37l-1.968 7.173H1.416V4.672z"/>
</svg>
