<svg width="20" height="20" viewBox="0 0 20 20" xmlns="http://www.w3.org/2000/svg"><title>A65597FA-EE12-48AB-B059-3E7ECED424B1</title><path d="M5.869 9.412l2.706 2.703 7.67-9.176a.728.728 0 0 1 1-.086.726.726 0 0 1 .086.999l-8.153 9.761a.788.788 0 0 1-.517.258h-.034a.69.69 0 0 1-.5-.206L4.869 10.41a.706.706 0 1 1 1-.999zm9.411-7.884a.7.7 0 0 1-.741 1.188C11.126.598 6.765 1.097 3.904 3.938c-3.344 3.34-3.344 8.797 0 12.137s8.808 3.34 12.152 0c2.86-2.858 3.36-7.23 1.206-10.64a.7.7 0 0 1 1.19-.74c2.499 3.96 1.93 9.056-1.397 12.378a9.993 9.993 0 0 1-14.133 0c-3.896-3.89-3.896-10.243 0-14.134A9.951 9.951 0 0 1 15.28 1.528z" fill="#FFF" fill-rule="evenodd"/></svg>