<?xml version="1.0" encoding="utf-8"?>
<!-- Generator: Adobe Illustrator 16.0.0, SVG Export Plug-In . SVG Version: 6.00 Build 0)  -->
<!DOCTYPE svg PUBLIC "-//W3C//DTD SVG 1.1//EN" "http://www.w3.org/Graphics/SVG/1.1/DTD/svg11.dtd">
<svg version="1.1" id="Layer_1" xmlns="http://www.w3.org/2000/svg" xmlns:xlink="http://www.w3.org/1999/xlink" x="0px" y="0px"
	 width="128px" height="128px" viewBox="0 0 128 128" style="enable-background:new 0 0 128 128;" xml:space="preserve">
<style type="text/css">
<![CDATA[
	.st0{fill-rule:evenodd;clip-rule:evenodd;fill:#333333;}
]]>
</style>
<path class="st0" d="M112.5,100.3c-6.5,0-11.7-5.3-11.7-11.7v-1.1h-4.3v13.9c0,5.9-4.8,10.7-10.7,10.7H14.4
	c-5.9,0-10.7-4.8-10.7-10.7V29.9c0-5.9,4.8-10.7,10.7-10.7h71.5c5.9,0,10.7,4.8,10.7,10.7v12.8h4.3v-1.1c0-6.5,5.3-11.7,11.7-11.7
	c6.5,0,11.7,5.3,11.7,11.7v46.9C124.3,95,119,100.3,112.5,100.3z M92.3,29.9c0-3.5-2.9-6.4-6.4-6.4H14.4c-3.5,0-6.4,2.9-6.4,6.4
	v71.5c0,3.5,2.9,6.4,6.4,6.4h71.5c3.5,0,6.4-2.9,6.4-6.4V29.9z M117.9,41.2c0-2.7-2.4-5-5.3-5c-2.9,0-5.3,2.2-5.3,5v47.6
	c0,2.8,2.4,5,5.3,5c2.9,0,5.3-2.2,5.3-5V41.2z M73.1,91c-5.7,5.7-13.9,9.3-22.9,9.3c-17.4,0-31.5-13.1-31.5-29.3V60.3
	c0-16.2,14.1-29.3,31.5-29.3c13.6,0,25.1,8,29.5,19.3l-14.1,8.5c-0.6-7.2-7.3-12.8-15.4-12.8c-8.5,0-15.5,6.3-15.5,14v11.5
	c0,7.7,6.9,14,15.5,14c7.7,0,14.1-5.1,15.2-11.7H50.7v-8.5h14.9h7.5h8.5v5.9v2.7v26.7h-8.5V91z M71.3,53.1c0,0,2.2-1.3,5.3-2.3
	c-3-13.8-24.1-17.3-24.1-17.3C74.1,42.2,71.3,53.1,71.3,53.1z M36,81.7l-2,0.7c2.1,3.1,5,5.5,8.5,6.9l0.7-1.1
	C40.1,86.8,37.7,84.5,36,81.7z M80.5,16H19.7c-2.4,0-4.3-1.9-4.3-4.3c0-2.4,1.9-4.3,4.3-4.3h60.8c2.4,0,4.3,1.9,4.3,4.3
	C84.8,14.1,82.9,16,80.5,16z M76.3,4.3H25.1c-1.2,0-2.1-1-2.1-2.1s1-2.1,2.1-2.1h51.2c1.2,0,2.1,1,2.1,2.1S77.4,4.3,76.3,4.3z
	 M27.2,115.2h46.9c3.5,0,6.4,2.9,6.4,6.4c0,3.5-2.9,6.4-6.4,6.4H27.2c-3.5,0-6.4-2.9-6.4-6.4C20.8,118.1,23.7,115.2,27.2,115.2z
	 M68.8,125.9c2.4,0,4.3-1.9,4.3-4.3c0-2.4-1.9-4.3-4.3-4.3s-4.3,1.9-4.3,4.3C64.5,124,66.4,125.9,68.8,125.9z M50.7,125.9
	c2.4,0,4.3-1.9,4.3-4.3c0-2.4-1.9-4.3-4.3-4.3c-2.4,0-4.3,1.9-4.3,4.3C46.4,124,48.3,125.9,50.7,125.9z M32.5,125.9
	c2.4,0,4.3-1.9,4.3-4.3c0-2.4-1.9-4.3-4.3-4.3c-2.4,0-4.3,1.9-4.3,4.3C28.3,124,30.2,125.9,32.5,125.9z"/>
</svg>
