<svg xmlns="http://www.w3.org/2000/svg" width="20" height="20" viewBox="0 0 20 20">
    <path fill="#26AFEF" fill-rule="evenodd" d="M9 12.586L4.875 8.46a1.004 1.004 0 0 0-1.41.003.995.995 0 0 0-.004 1.411l5.664 5.664a.972.972 0 0 0 .086.076A.996.996 0 0 0 10 16c.32 0 .606-.15.79-.385a.973.973 0 0 0 .085-.076l5.664-5.664a.995.995 0 0 0-.003-1.41 1.004 1.004 0 0 0-1.411-.004L11 12.586V1C11 .448 10.556 0 10 0c-.552 0-1 .445-1 1v11.586zM0 19c0-.552.455-1 .992-1h18.016c.548 0 .992.444.992 1 0 .552-.455 1-.992 1H.992A.993.993 0 0 1 0 19z"/>
</svg>
