<svg xmlns="http://www.w3.org/2000/svg" width="20" height="11" viewBox="0 0 20 11">
    <path fill="#809DCF" fill-rule="evenodd" d="M10 0C5.12 0 .395 4.777.206 4.989A.715.715 0 0 0 0 5.5c0 .194.069.37.206.511C.412 6.223 5.12 11 10 11c4.88 0 9.605-4.777 9.794-4.989A.715.715 0 0 0 20 5.5a.715.715 0 0 0-.206-.511C19.604 4.777 14.897 0 10 0zm0 9.537c-3.42 0-6.942-2.856-8.265-4.055C3.058 4.284 6.581 1.428 10 1.428c3.42 0 6.942 2.856 8.265 4.054-1.323 1.2-4.846 4.055-8.265 4.055zM7.474 5.482c0 1.428 1.134 2.61 2.543 2.61 1.41 0 2.543-1.164 2.543-2.61 0-1.445-1.134-2.609-2.543-2.609-1.409 0-2.543 1.181-2.543 2.61zm3.66 0c0 .635-.498 1.164-1.134 1.164a1.148 1.148 0 0 1-1.134-1.164c0-.652.498-1.163 1.134-1.163a1.171 1.171 0 0 1 1.134 1.163z"/>
</svg>
