<svg width="20" height="20" viewBox="0 0 20 20" xmlns="http://www.w3.org/2000/svg"><title>7E04B261-D475-465C-B59F-177861FB01FF</title><path d="M19.983 8.537a.737.737 0 0 0-.463-.517l-5.783-1.944L10.648.379A.709.709 0 0 0 10.013 0a.709.709 0 0 0-.635.379l-3.071 5.68-5.8 1.755a.674.674 0 0 0-.48.499.73.73 0 0 0 .17.688l3.81 4.183-1.578 5.903a.717.717 0 0 0 .223.723c.206.19.497.241.738.138l6.623-2.65 6.624 2.65a.71.71 0 0 0 .275.051.736.736 0 0 0 .48-.189.728.728 0 0 0 .223-.723l-1.579-5.903 3.776-3.976a.793.793 0 0 0 .171-.671zm-5.268 3.941c-.172.19-.24.448-.172.689l1.322 4.887-5.577-2.203a.71.71 0 0 0-.275-.051.775.775 0 0 0-.274.051l-5.56 2.22L5.5 13.185c.069-.241 0-.5-.171-.672L2.017 8.864 7.01 7.366a.666.666 0 0 0 .43-.344l2.573-4.767 2.574 4.767a.751.751 0 0 0 .412.344l4.976 1.67-3.26 3.442z" fill="#FFF" fill-rule="evenodd"/></svg>