<svg xmlns="http://www.w3.org/2000/svg" width="18" height="18" viewBox="0 0 18 18">
    <path fill="#809DCF" fill-rule="evenodd" d="M.016 17.52v-.032c0-.046-.016-.108-.016-.155V.636C0 .279.28 0 .636 0h16.728c.357 0 .636.28.636.636v16.728c0 .357-.28.636-.636.636H.59c-.046 0-.093 0-.14-.016 0 0-.015-.015-.03-.015-.016-.016-.016-.016-.031-.016-.016-.015-.047-.015-.062-.03 0-.016-.016-.016-.016-.016l-.015-.016c-.016-.015-.031-.015-.047-.03 0 0 0-.016-.015-.016l-.031-.031-.016-.016c-.015-.03-.046-.046-.062-.077l-.015-.016c0-.015-.016-.015-.016-.03 0-.016-.015-.016-.015-.032-.016-.03-.031-.077-.047-.108-.015 0-.015 0-.015-.016 0 .016 0 0 0 0zm16.76-.807v-3.287l-3.66-3.488L2.76 16.713h14.015zM10.805 6.59a1.023 1.023 0 1 1 0-2.046 1.023 1.023 0 0 1 0 2.046zM1.271 1.271V12l5.752-3.628a.636.636 0 0 1 .791.093l2.062 2.078 2.961-1.954a.655.655 0 0 1 .79.078l3.148 3.007V1.271H1.271zm0 12.233v2.667l7.52-4.915L7.27 9.72l-6 3.783z"/>
</svg>
