<svg xmlns="http://www.w3.org/2000/svg" width="21" height="21" viewBox="0 0 21 21">
    <path fill="none" fill-rule="evenodd" stroke="#809DCF" d="M19.593.467zm-1.39 6.941zm-2.57 2.574zM19.593.5v3.29l-.985.985-.124.124-.02.174-.258 2.308h-2.285l-.05.445-.235 2.128H13.43l-.146.146-3.404 3.404-.191.191.055.265a4.68 4.68 0 0 1-1.251 4.264 4.648 4.648 0 0 1-3.312 1.372 4.638 4.638 0 0 1-3.31-1.372A4.642 4.642 0 0 1 .5 14.912c0-1.25.486-2.424 1.372-3.31a4.673 4.673 0 0 1 4.263-1.254l.265.056.192-.191L16.306.5h3.287zM5.206 17.158a1.604 1.604 0 1 0 2.27-2.27 1.604 1.604 0 0 0-4.54 2.27c.613.613 1.657.613 2.27 0z"/>
</svg>
