<svg xmlns="http://www.w3.org/2000/svg" width="12" height="20" viewBox="0 0 12 20">
    <path fill="#26AFEF" fill-rule="nonzero" d="M6 14.398a4.293 4.293 0 0 0 4.288-4.287V4.288A4.293 4.293 0 0 0 5.999 0a4.293 4.293 0 0 0-4.287 4.288v5.823a4.293 4.293 0 0 0 4.287 4.287zM2.822 4.288A3.18 3.18 0 0 1 5.999 1.11a3.18 3.18 0 0 1 3.177 3.177v5.823A3.18 3.18 0 0 1 6 13.287a3.18 3.18 0 0 1-3.176-3.176V4.288zm8.621 2.541a.556.556 0 0 0-.555.556v2.972a4.895 4.895 0 0 1-4.89 4.888 4.894 4.894 0 0 1-4.888-4.888V7.385a.556.556 0 0 0-1.111 0v2.972a6.008 6.008 0 0 0 5.444 5.973v2.304H3.188a.556.556 0 0 0 0 1.11H8.81a.556.556 0 0 0 0-1.11H6.555V16.33A6.008 6.008 0 0 0 12 10.357V7.385a.556.556 0 0 0-.556-.556z"/>
</svg>
