<svg xmlns="http://www.w3.org/2000/svg" width="20" height="21" viewBox="0 0 20 21">
    <path fill="#809DCF" fill-rule="evenodd" d="M1.995 18.658a.646.646 0 0 0 .923-.003l3.501-3.5 3.94 3.939.01.011.787.786a.646.646 0 0 0 .923-.003.646.646 0 0 0 .003-.923l-.416-.416 5.95-8.665 1.1 1.1a.646.646 0 0 0 .923-.003.646.646 0 0 0 .003-.923l-1.65-1.65-5.747-5.747-1.65-1.65a.646.646 0 0 0-.923.003.646.646 0 0 0-.003.923l1.1 1.1-8.665 5.95-.416-.416a.646.646 0 0 0-.923.003.646.646 0 0 0-.003.923l.797.797 3.95 3.951-3.5 3.501a.632.632 0 0 0-.014.912zm1.04-8.74L11.69 3.98l4.984 4.984-5.938 8.654-7.7-7.7z"/>
</svg>
