<svg width="20" height="20" viewBox="0 0 20 20" xmlns="http://www.w3.org/2000/svg"><title>68B50ED1-7C14-467B-B51F-3FFEAB552A61</title><path d="M.706 16.97h3.941v2.324c0 .396.31.706.706.706h9.294c.396 0 .706-.31.706-.706v-2.323h3.941c.396 0 .706-.31.706-.706V3.735a.698.698 0 0 0-.706-.706h-3.941V.706A.698.698 0 0 0 14.647 0H5.353a.698.698 0 0 0-.706.706v2.323H.706A.698.698 0 0 0 0 3.735v12.53a.72.72 0 0 0 .706.706zM13.94 18.59H6.06V12.77h7.882v5.818zM6.06 1.41h7.882V3.03H6.06V1.411zM1.41 4.441H18.59v11.118h-3.236v-2.788h1.256c.396 0 .706-.31.706-.706a.698.698 0 0 0-.706-.705H3.408a.698.698 0 0 0-.706.705c0 .396.31.706.706.706h1.256v2.788H1.411V4.441zm12.324 3.631h1.824c.396 0 .706-.31.706-.705a.698.698 0 0 0-.706-.706h-1.824a.698.698 0 0 0-.706.706c0 .395.31.705.706.705z" fill="#26AFEF" fill-rule="evenodd"/></svg>