<svg width="20" height="20" viewBox="0 0 20 20" xmlns="http://www.w3.org/2000/svg"><title>F274D154-9EF3-4B69-B183-297ABE6E9D81</title><path d="M9.967 10.672a5.35 5.35 0 0 0 5.353-5.344C15.32 2.377 12.923 0 9.967 0S4.614 2.393 4.614 5.328c0 2.934 2.397 5.344 5.353 5.344zm0-9.279a3.95 3.95 0 0 1 3.941 3.935 3.95 3.95 0 0 1-3.94 3.934 3.95 3.95 0 0 1-3.942-3.934 3.95 3.95 0 0 1 3.941-3.935zM.707 19.016A.7.7 0 0 1 0 18.311c0-3.704 3.021-6.704 6.716-6.704h6.568c3.711 0 6.716 3.016 6.716 6.704a.7.7 0 0 1-.706.705H.706zm6.009-6a5.311 5.311 0 0 0-5.255 4.59H18.54a5.297 5.297 0 0 0-5.255-4.59H6.716z" fill="#FFF" fill-rule="evenodd"/></svg>