<svg width="20" height="24" viewBox="0 0 20 24" xmlns="http://www.w3.org/2000/svg"><title>DEB5CEBD-C988-4221-9ED5-896D66E30256</title><path d="M10 23.2c.456 0 .813-.36.813-.819v-6.189H19.187c.456 0 .813-.36.813-.819a.807.807 0 0 0-.813-.818h-.735l-2.4-12.918h1.944c.456 0 .814-.36.814-.818A.807.807 0 0 0 17.996 0H2.004a.807.807 0 0 0-.814.819c0 .459.358.818.814.818h1.944l-2.4 12.918H.813a.807.807 0 0 0-.813.818c0 .46.357.82.813.82H9.206v6.188A.79.79 0 0 0 10 23.2zm-6.806-8.645L5.595 1.657h8.81l2.4 12.898H3.196z" fill="#FFF" fill-rule="evenodd"/></svg>