<svg xmlns="http://www.w3.org/2000/svg" width="18" height="20" viewBox="0 0 18 20">
    <path fill="#809DCF" fill-rule="evenodd" d="M0 10.992C0 15.962 4.034 20 9 20s9-4.038 9-9.008c0-2.467-1-4.728-2.62-6.35l.706-.708.328.328a.69.69 0 0 0 .5.207.709.709 0 0 0 .5-1.208l-1.638-1.639a.707.707 0 1 0-1 1.001l.327.328-.775.776A8.901 8.901 0 0 0 9.724 2.02v-.604h1.57A.7.7 0 0 0 12 .708.7.7 0 0 0 11.293 0H6.638a.7.7 0 0 0-.707.708.7.7 0 0 0 .707.707H8.31v.604C3.655 2.381 0 6.264 0 10.992zM9.5 9.75V6.752a.75.75 0 1 0-1.5 0V9.75H5.002a.75.75 0 1 0 0 1.5H8v2.998a.75.75 0 1 0 1.5 0V11.25h2.998a.75.75 0 1 0 0-1.5H9.5zM9 3.4c4.19 0 7.603 3.416 7.603 7.61 0 4.193-3.413 7.61-7.603 7.61-4.19 0-7.603-3.417-7.603-7.61C1.397 6.798 4.81 3.4 9 3.4z"/>
</svg>
