<?xml version="1.0" encoding="utf-8"?>
<!-- Generator: Adobe Illustrator 16.0.0, SVG Export Plug-In . SVG Version: 6.00 Build 0)  -->
<!DOCTYPE svg PUBLIC "-//W3C//DTD SVG 1.1//EN" "http://www.w3.org/Graphics/SVG/1.1/DTD/svg11.dtd">
<svg version="1.1" id="Layer_1" xmlns="http://www.w3.org/2000/svg" xmlns:xlink="http://www.w3.org/1999/xlink" x="0px" y="0px"
	 width="18px" height="18px" viewBox="0 0 18 18" enable-background="new 0 0 18 18" xml:space="preserve">
<title>968CE2E6-5887-49CD-A5C2-F3FA35F55EB2</title>
<path fill="#4E4C4D" d="M12.752,13.753l4.04,4.04c0.138,0.139,0.31,0.207,0.5,0.207s0.362-0.068,0.5-0.207
	c0.276-0.276,0.276-0.724,0-1l-4.039-4.04c1.167-1.394,1.808-3.152,1.812-4.97c0-4.298-3.483-7.782-7.781-7.783
	C3.503,0,0,3.503,0,7.783c0,4.296,3.503,7.781,7.783,7.781C9.603,15.572,11.365,14.93,12.752,13.753L12.752,13.753z M7.782,1.415
	c3.515,0.003,6.364,2.853,6.368,6.368c0.002,3.514-2.846,6.365-6.359,6.367c-0.002,0-0.005,0-0.008,0
	c-3.516-0.004-6.364-2.852-6.368-6.367C1.415,4.28,4.28,1.415,7.782,1.415L7.782,1.415z"/>
</svg>
