<svg width="20" height="20" viewBox="0 0 20 20" xmlns="http://www.w3.org/2000/svg"><title>68E8EA38-ABC3-4B19-A395-A4E91A2CF13B</title><path d="M17 2.845A10.011 10.011 0 0 0 10 0C7.276 0 4.81 1.103 3 2.88c-.017.017-.034.017-.069.034-.017.017-.017.034-.034.052A9.93 9.93 0 0 0 0 10c0 5.517 4.483 10 10 10s10-4.483 10-10a9.96 9.96 0 0 0-2.897-7.034c-.017-.018-.017-.052-.034-.07-.017-.017-.052-.034-.069-.051zm-7 15.758c-4.5 0-8.207-3.482-8.569-7.896h6.12a2.54 2.54 0 0 0 2.432 1.827 2.524 2.524 0 0 0 2.43-1.827h6.121C18.207 15.12 14.5 18.603 10 18.603zM8.88 10c0-.62.5-1.12 1.12-1.12.62 0 1.12.5 1.12 1.12 0 .62-.5 1.12-1.12 1.12-.62 0-1.12-.5-1.12-1.12zm3.551-.707a2.453 2.453 0 0 0-.81-1.241l1.913-4.362a.702.702 0 0 0-.362-.931.702.702 0 0 0-.93.362l-1.914 4.362c-.104-.017-.225-.017-.328-.017a2.54 2.54 0 0 0-2.431 1.827H1.431a8.46 8.46 0 0 1 2.035-4.862l1.327 1.328a.69.69 0 0 0 .5.207.708.708 0 0 0 .5-1.207L4.466 3.43a8.603 8.603 0 0 1 4.827-2v1.88a.7.7 0 0 0 .707.706.7.7 0 0 0 .707-.707V1.431c1.827.155 3.5.88 4.827 2l-1.31 1.328a.708.708 0 0 0 1 1l1.328-1.328a8.442 8.442 0 0 1 2.017 4.862h-6.138z" fill="#FFF" fill-rule="evenodd"/></svg>