<svg width="20" height="20" viewBox="0 0 20 20" xmlns="http://www.w3.org/2000/svg"><title>94786EE3-86B1-4820-8F35-03B74B31E29F</title><path d="M.708 10.708h1.555c.328 3.73 3.316 6.701 7.029 7.03v1.554c0 .38.31.708.708.708.38 0 .708-.31.708-.708v-1.555c3.73-.328 6.701-3.316 7.03-7.029h1.554c.38 0 .708-.31.708-.708 0-.38-.31-.708-.708-.708h-1.555c-.328-3.73-3.316-6.701-7.029-7.03V.709c0-.38-.31-.708-.708-.708-.38 0-.708.31-.708.708v1.555c-3.73.328-6.701 3.316-7.03 7.029H.709A.7.7 0 0 0 0 10c0 .397.328.708.708.708zm5.82-1.416h-2.85c.329-2.953 2.678-5.302 5.614-5.613v2.85c0 .38.31.708.708.708.38 0 .708-.311.708-.709v-2.85c2.953.329 5.302 2.678 5.613 5.614h-2.85c-.38 0-.708.31-.708.708 0 .38.311.708.709.708h2.85c-.329 2.953-2.678 5.302-5.614 5.613v-2.85c0-.38-.31-.708-.708-.708-.38 0-.708.311-.708.709v2.85c-2.953-.329-5.302-2.678-5.613-5.614h2.85c.38 0 .708-.31.708-.708a.723.723 0 0 0-.709-.708z" fill="#FFF" fill-rule="evenodd"/></svg>