<svg width="20" height="23" viewBox="0 0 20 23" xmlns="http://www.w3.org/2000/svg"><title>AC0FA5BB-C852-498A-B801-6809E0722D9A</title><path d="M0 12.26c0 5.544 4.483 10.048 10 10.048s10-4.504 10-10.047c0-2.753-1.111-5.274-2.912-7.083l.786-.79.364.366a.765.765 0 0 0 .555.231c.21 0 .402-.077.556-.23a.793.793 0 0 0 0-1.117l-1.82-1.829a.784.784 0 0 0-1.111 0 .793.793 0 0 0 0 1.117l.364.365-.862.866a9.867 9.867 0 0 0-5.115-1.905v-.674h1.743c.44 0 .785-.346.785-.789A.779.779 0 0 0 12.548 0H7.375a.779.779 0 0 0-.785.79c0 .442.345.788.785.788h1.859v.674C4.06 2.656 0 6.987 0 12.26zm10-8.468c4.655 0 8.448 3.81 8.448 8.488 0 4.677-3.793 8.488-8.448 8.488s-8.448-3.811-8.448-8.488c0-4.697 3.793-8.488 8.448-8.488zm0 9.123h3.352c.441 0 .786-.346.786-.79a.779.779 0 0 0-.786-.788h-2.567V7.276a.779.779 0 0 0-.785-.79.779.779 0 0 0-.785.79v4.87c0 .423.344.769.785.769z" fill="#FFF" fill-rule="evenodd"/></svg>