<svg width="20" height="11" viewBox="0 0 20 11" xmlns="http://www.w3.org/2000/svg"><title>D923B1AE-7811-46E8-80B0-EB3FE2DC4EA2</title><path d="M10 0C5.12 0 .395 4.642.206 4.848A.685.685 0 0 0 0 5.345c0 .188.069.36.206.497C.412 6.047 5.12 10.69 10 10.69c4.88 0 9.605-4.643 9.794-4.848A.685.685 0 0 0 20 5.345a.685.685 0 0 0-.206-.497C19.604 4.642 14.897 0 10 0zm0 9.268c-3.42 0-6.942-2.775-8.265-3.94C3.058 4.163 6.581 1.388 10 1.388c3.42 0 6.942 2.775 8.265 3.94-1.323 1.165-4.846 3.94-8.265 3.94zm-2.526-3.94a2.544 2.544 0 0 0 2.543 2.535 2.533 2.533 0 0 0 2.543-2.535 2.533 2.533 0 0 0-2.543-2.536 2.544 2.544 0 0 0-2.543 2.536zm3.66 0c0 .616-.498 1.13-1.134 1.13a1.131 1.131 0 0 1-1.134-1.13c0-.634.498-1.13 1.134-1.13.619.016 1.134.513 1.134 1.13z" fill="#FFF" fill-rule="evenodd"/></svg>